<svg height="480pt" viewBox="0 0 480 480" width="480pt" xmlns="http://www.w3.org/2000/svg"><path d="m192 176h96c8.835938 0 16 7.164062 16 16v96c0 8.835938-7.164062 16-16 16h-96c-8.835938 0-16-7.164062-16-16v-96c0-8.835938 7.164062-16 16-16zm0 0" fill="#ffc477"/><path d="m192 8h96c8.835938 0 16 7.164062 16 16v96c0 8.835938-7.164062 16-16 16h-96c-8.835938 0-16-7.164062-16-16v-96c0-8.835938 7.164062-16 16-16zm0 0" fill="#ff9478"/><path d="m192 344h96c8.835938 0 16 7.164062 16 16v96c0 8.835938-7.164062 16-16 16h-96c-8.835938 0-16-7.164062-16-16v-96c0-8.835938 7.164062-16 16-16zm0 0" fill="#c6c5ca"/><path d="m360 176h96c8.835938 0 16 7.164062 16 16v96c0 8.835938-7.164062 16-16 16h-96c-8.835938 0-16-7.164062-16-16v-96c0-8.835938 7.164062-16 16-16zm0 0" fill="#d5b4eb"/><path d="m360 8h96c8.835938 0 16 7.164062 16 16v96c0 8.835938-7.164062 16-16 16h-96c-8.835938 0-16-7.164062-16-16v-96c0-8.835938 7.164062-16 16-16zm0 0" fill="#ffe477"/><path d="m360 344h96c8.835938 0 16 7.164062 16 16v96c0 8.835938-7.164062 16-16 16h-96c-8.835938 0-16-7.164062-16-16v-96c0-8.835938 7.164062-16 16-16zm0 0" fill="#c9eeae"/><path d="m24 176h96c8.835938 0 16 7.164062 16 16v96c0 8.835938-7.164062 16-16 16h-96c-8.835938 0-16-7.164062-16-16v-96c0-8.835938 7.164062-16 16-16zm0 0" fill="#00eed1"/><path d="m24 8h96c8.835938 0 16 7.164062 16 16v96c0 8.835938-7.164062 16-16 16h-96c-8.835938 0-16-7.164062-16-16v-96c0-8.835938 7.164062-16 16-16zm0 0" fill="#78b9eb"/><path d="m24 344h96c8.835938 0 16 7.164062 16 16v96c0 8.835938-7.164062 16-16 16h-96c-8.835938 0-16-7.164062-16-16v-96c0-8.835938 7.164062-16 16-16zm0 0" fill="#f490c0"/><g fill="#3e3d42"><path d="m288 168h-96c-13.253906 0-24 10.746094-24 24v96c0 13.253906 10.746094 24 24 24h96c13.253906 0 24-10.746094 24-24v-96c0-13.253906-10.746094-24-24-24zm8 120c0 4.417969-3.582031 8-8 8h-96c-4.417969 0-8-3.582031-8-8v-96c0-4.417969 3.582031-8 8-8h96c4.417969 0 8 3.582031 8 8zm0 0"/><path d="m288 0h-96c-13.253906 0-24 10.746094-24 24v96c0 13.253906 10.746094 24 24 24h96c13.253906 0 24-10.746094 24-24v-96c0-13.253906-10.746094-24-24-24zm8 120c0 4.417969-3.582031 8-8 8h-96c-4.417969 0-8-3.582031-8-8v-96c0-4.417969 3.582031-8 8-8h96c4.417969 0 8 3.582031 8 8zm0 0"/><path d="m288 336h-96c-13.253906 0-24 10.746094-24 24v96c0 13.253906 10.746094 24 24 24h96c13.253906 0 24-10.746094 24-24v-96c0-13.253906-10.746094-24-24-24zm8 120c0 4.417969-3.582031 8-8 8h-96c-4.417969 0-8-3.582031-8-8v-96c0-4.417969 3.582031-8 8-8h96c4.417969 0 8 3.582031 8 8zm0 0"/><path d="m456 168h-96c-13.253906 0-24 10.746094-24 24v96c0 13.253906 10.746094 24 24 24h96c13.253906 0 24-10.746094 24-24v-96c0-13.253906-10.746094-24-24-24zm8 120c0 4.417969-3.582031 8-8 8h-96c-4.417969 0-8-3.582031-8-8v-96c0-4.417969 3.582031-8 8-8h96c4.417969 0 8 3.582031 8 8zm0 0"/><path d="m456 0h-96c-13.253906 0-24 10.746094-24 24v96c0 13.253906 10.746094 24 24 24h96c13.253906 0 24-10.746094 24-24v-96c0-13.253906-10.746094-24-24-24zm8 120c0 4.417969-3.582031 8-8 8h-96c-4.417969 0-8-3.582031-8-8v-96c0-4.417969 3.582031-8 8-8h96c4.417969 0 8 3.582031 8 8zm0 0"/><path d="m456 336h-96c-13.253906 0-24 10.746094-24 24v96c0 13.253906 10.746094 24 24 24h96c13.253906 0 24-10.746094 24-24v-96c0-13.253906-10.746094-24-24-24zm8 120c0 4.417969-3.582031 8-8 8h-96c-4.417969 0-8-3.582031-8-8v-96c0-4.417969 3.582031-8 8-8h96c4.417969 0 8 3.582031 8 8zm0 0"/><path d="m120 168h-96c-13.253906 0-24 10.746094-24 24v96c0 13.253906 10.746094 24 24 24h96c13.253906 0 24-10.746094 24-24v-96c0-13.253906-10.746094-24-24-24zm8 120c0 4.417969-3.582031 8-8 8h-96c-4.417969 0-8-3.582031-8-8v-96c0-4.417969 3.582031-8 8-8h96c4.417969 0 8 3.582031 8 8zm0 0"/><path d="m120 0h-96c-13.253906 0-24 10.746094-24 24v96c0 13.253906 10.746094 24 24 24h96c13.253906 0 24-10.746094 24-24v-96c0-13.253906-10.746094-24-24-24zm8 120c0 4.417969-3.582031 8-8 8h-96c-4.417969 0-8-3.582031-8-8v-96c0-4.417969 3.582031-8 8-8h96c4.417969 0 8 3.582031 8 8zm0 0"/><path d="m120 336h-96c-13.253906 0-24 10.746094-24 24v96c0 13.253906 10.746094 24 24 24h96c13.253906 0 24-10.746094 24-24v-96c0-13.253906-10.746094-24-24-24zm8 120c0 4.417969-3.582031 8-8 8h-96c-4.417969 0-8-3.582031-8-8v-96c0-4.417969 3.582031-8 8-8h96c4.417969 0 8 3.582031 8 8zm0 0"/></g></svg>