<?xml version="1.0" encoding="iso-8859-1"?>
<!-- Generator: Adobe Illustrator 19.0.0, SVG Export Plug-In . SVG Version: 6.00 Build 0)  -->
<svg version="1.1" id="Capa_1" xmlns="http://www.w3.org/2000/svg"  x="0px" y="0px"
	 viewBox="0 0 512 512" style="enable-background:new 0 0 512 512;" xml:space="preserve">
<path style="fill:#73553A;" d="M165.985,512c-3.135,0-6.284-0.981-8.979-3.003c-6.636-4.966-7.983-14.37-3.003-20.991l90-121
	c4.966-6.621,14.385-7.969,20.991-3.003c6.636,4.966,7.983,14.37,3.003,20.991l-90,121C175.053,509.935,170.556,512,165.985,512z"/>
<path style="fill:#59422D;" d="M346.015,512c-4.57,0-9.067-2.065-12.012-6.006l-90-121c-4.98-6.621-3.633-16.025,3.003-20.991
	c6.592-4.995,16.011-3.647,20.991,3.003l90,121c4.98,6.621,3.633,16.025-3.003,20.991C352.299,511.019,349.149,512,346.015,512z"/>
<path style="fill:#73553A;" d="M271,376v91c0,8.401-6.599,15-15,15s-15-6.599-15-15v-91c0-8.401,6.599-15,15-15S271,367.599,271,376
	z"/>
<path style="fill:#59422D;" d="M271,376v91c0,8.401-6.599,15-15,15V361C264.401,361,271,367.599,271,376z"/>
<path style="fill:#896748;" d="M467,0H45C20.099,0,0,20.099,0,45v301c0,24.901,20.099,45,45,45h422c24.901,0,45-20.099,45-45V45
	C512,20.099,491.901,0,467,0z"/>
<path style="fill:#73553A;" d="M512,45v301c0,24.901-20.099,45-45,45H256V0h211C491.901,0,512,20.099,512,45z"/>
<path style="fill:#FEDBAB;" d="M437,60H316c-24.6,0-46.199,12.001-60,30.601C242.199,72.001,220.6,60,196,60H75
	c-8.401,0-15,6.599-15,15v241c0,8.401,6.599,15,15,15h362c8.401,0,15-6.599,15-15V75C452,66.599,445.401,60,437,60z"/>
<path style="fill:#FEC478;" d="M452,75v241c0,8.401-6.599,15-15,15H256V90.601C269.801,72.001,291.4,60,316,60h121
	C445.401,60,452,66.599,452,75z"/>
<g>
	<path style="fill:#FF8700;" d="M376,151h-60c-8.291,0-15-6.709-15-15s6.709-15,15-15h60c8.291,0,15,6.709,15,15
		S384.291,151,376,151z"/>
	<path style="fill:#FF8700;" d="M376,211h-60c-8.291,0-15-6.709-15-15s6.709-15,15-15h60c8.291,0,15,6.709,15,15
		S384.291,211,376,211z"/>
	<path style="fill:#FF8700;" d="M376,271h-60c-8.291,0-15-6.709-15-15s6.709-15,15-15h60c8.291,0,15,6.709,15,15
		C391,264.291,384.291,271,376,271z"/>
</g>
<g>
	<path style="fill:#FEA832;" d="M196,151h-61c-8.291,0-15-6.709-15-15s6.709-15,15-15h61c8.291,0,15,6.709,15,15
		S204.291,151,196,151z"/>
	<path style="fill:#FEA832;" d="M196,211h-61c-8.291,0-15-6.709-15-15s6.709-15,15-15h61c8.291,0,15,6.709,15,15
		S204.291,211,196,211z"/>
	<path style="fill:#FEA832;" d="M196,271h-61c-8.291,0-15-6.709-15-15s6.709-15,15-15h61c8.291,0,15,6.709,15,15
		C211,264.291,204.291,271,196,271z"/>
</g>
<g>
</g>
<g>
</g>
<g>
</g>
<g>
</g>
<g>
</g>
<g>
</g>
<g>
</g>
<g>
</g>
<g>
</g>
<g>
</g>
<g>
</g>
<g>
</g>
<g>
</g>
<g>
</g>
<g>
</g>
</svg>
