<svg height="431pt" viewBox="-7 1 431 431.792" width="431pt" xmlns="http://www.w3.org/2000/svg"><path d="m7.601562 7.199219h273.597657v388.800781h-273.597657zm0 0" fill="#5a6470"/><path d="m223.601562 424.800781-216-28.800781v-388.800781l216 28.800781zm0 0" fill="#36afad"/><path d="m194.800781 216c0 7.953125-6.449219 14.398438-14.402343 14.398438-7.949219 0-14.398438-6.445313-14.398438-14.398438s6.449219-14.398438 14.398438-14.398438c7.953124 0 14.402343 6.445313 14.402343 14.398438zm0 0" fill="#fcf05a"/><path d="m180.398438 237.601562c-11.929688 0-21.597657-9.671874-21.597657-21.601562s9.667969-21.601562 21.597657-21.601562c11.929687 0 21.601562 9.671874 21.601562 21.601562-.011719 11.921875-9.675781 21.585938-21.601562 21.601562zm0-28.800781c-3.976563 0-7.199219 3.222657-7.199219 7.199219s3.222656 7.203125 7.199219 7.203125c3.980468 0 7.203124-3.226563 7.203124-7.203125-.007812-3.976562-3.226562-7.195312-7.203124-7.199219zm0 0" fill="#fcf05a"/><path d="m252.398438 108h86.402343v57.601562h-86.402343zm0 0" fill="#e9686a"/><path d="m338.800781 187.199219v-100.800781l72 50.402343zm0 0" fill="#e9686a"/><path d="m166 93.601562-100.800781-14.402343v-28.800781l100.800781 14.402343zm0 0" fill="#fff"/><path d="m180.398438 194.402344c-11.929688 0-21.597657 9.667968-21.597657 21.597656s9.667969 21.601562 21.597657 21.601562c11.929687 0 21.601562-9.671874 21.601562-21.601562-.011719-11.921875-9.675781-21.585938-21.601562-21.597656zm0 28.796875c-3.976563 0-7.199219-3.222657-7.199219-7.199219s3.222656-7.199219 7.199219-7.199219c3.980468 0 7.203124 3.222657 7.203124 7.199219-.003906 3.976562-3.226562 7.195312-7.203124 7.199219zm0 0"/><path d="m414.925781 130.902344-72-50.402344c-3.253906-2.28125-7.742187-1.488281-10.023437 1.769531-.847656 1.207031-1.300782 2.652344-1.300782 4.128907v14.402343h-43.199218v-93.601562c0-3.976563-3.222656-7.199219-7.199219-7.199219h-273.601563c-.8125.0898438-1.617187.253906-2.398437.484375-.5625.222656-1.09375.515625-1.582031.875-.246094.164063-.847656.554687-.90625.609375-.640625.722656-1.207032 1.507812-1.691406 2.34375-.40625.90625-.621094 1.890625-.625 2.886719v388.800781c.007812.921875.191406 1.832031.542968 2.683594.410156.78125.890625 1.519531 1.433594 2.214844.261719.246093.546875.46875.84375.671874.394531.335938.828125.628907 1.285156.867188.695313.292969 1.414063.523438 2.144532.699219l216 28.800781c.316406.042969.632812.0625.949218.0625 3.972656.003906 7.199219-3.214844 7.203125-7.1875 0-.003906 0-.007812 0-.011719v-21.601562h50.398438c3.976562 0 7.199219-3.21875 7.199219-7.195313 0-.003906 0-.003906 0-.003906v-223.199219h43.203124v14.398438c-.003906 3.976562 3.222657 7.199219 7.195313 7.203125 1.476563 0 2.921875-.457032 4.128906-1.300782l72-50.402343c3.257813-2.277344 4.054688-6.765625 1.773438-10.023438-.480469-.691406-1.082031-1.292969-1.773438-1.773437zm-198.527343 285.675781-201.597657-26.882813v-374.273437l201.597657 26.882813zm57.601562-27.777344h-43.199219v-352.800781c0-3.609375-2.671875-6.660156-6.25-7.136719l-108.476562-14.464843h157.925781v86.402343h-21.601562c-3.972657-.003906-7.199219 3.21875-7.199219 7.195313v.003906 57.597656c0 3.976563 3.222656 7.199219 7.195312 7.203125h.003907 21.601562zm-14.398438-230.402343v-43.199219h72v43.199219zm86.398438 14.976562v-73.148438l52.242188 36.574219zm0 0"/><path d="m166 100.800781c3.976562 0 7.199219-3.222656 7.199219-7.199219v-28.800781c0-3.582031-2.632813-6.617187-6.179688-7.125l-100.800781-14.402343c-3.933594-.5625-7.582031 2.167968-8.148438 6.105468-.046874.335938-.070312.679688-.070312 1.019532v28.800781c0 3.582031 2.632812 6.617187 6.179688 7.125l100.800781 14.402343c.335937.050782.679687.074219 1.019531.074219zm-7.199219-15.5-86.402343-12.34375v-14.257812l86.402343 12.34375zm0 0"/></svg>