<svg xmlns="http://www.w3.org/2000/svg" height="512pt" version="1.1" viewBox="0 0 512 512.0001" width="512pt">
  <g id="surface1">
    <path
      d="M 500.589844 481.28125 C 503.402344 471.609375 501.054688 460.757812 493.519531 453.21875 L 361.648438 321.347656 L 340.65625 342.339844 L 472.527344 474.210938 C 480.066406 481.75 490.914062 484.09375 500.589844 481.28125 Z M 500.589844 481.28125 "
      style=" stroke:none;fill-rule:nonzero;fill:rgb(35.294118%,32.941176%,87.843137%);fill-opacity:1;"/>
    <path
      d="M 393.902344 353.597656 L 353.359375 394.136719 L 321.113281 361.886719 L 361.652344 321.347656 Z M 393.902344 353.597656 "
      style=" stroke:none;fill-rule:nonzero;fill:rgb(100%,100%,100%);fill-opacity:1;"/>
    <path
      d="M 235.996094 13.011719 C 146.25 29.113281 78.152344 107.578125 78.152344 201.957031 C 78.152344 296.335938 146.25 374.800781 235.996094 390.898438 C 325.738281 374.800781 393.839844 296.332031 393.839844 201.957031 C 393.839844 107.578125 325.738281 29.113281 235.996094 13.011719 Z M 235.996094 13.011719 "
      style=" stroke:none;fill-rule:nonzero;fill:rgb(44.705882%,84.705882%,100%);fill-opacity:1;"/>
    <path
      d="M 345.847656 201.957031 C 345.847656 281.472656 281.386719 345.933594 201.871094 345.933594 C 122.355469 345.933594 57.894531 281.472656 57.894531 201.957031 C 57.894531 122.441406 122.355469 57.980469 201.871094 57.980469 C 281.386719 57.980469 345.847656 122.441406 345.847656 201.957031 Z M 345.847656 201.957031 "
      style=" stroke:none;fill-rule:nonzero;fill:rgb(100%,100%,100%);fill-opacity:1;"/>
    <path
      d="M 228.828125 197.796875 C 197.183594 198.679688 171.796875 224.589844 171.796875 256.445312 L 171.796875 261.613281 L 285.855469 261.613281 L 285.855469 256.445312 C 285.859375 224.589844 260.472656 198.679688 228.828125 197.796875 Z M 228.828125 197.796875 "
      style=" stroke:none;fill-rule:nonzero;fill:rgb(100%,36.470588%,36.470588%);fill-opacity:1;"/>
    <path
      d="M 219.703125 113.113281 C 207.707031 119.503906 199.539062 132.128906 199.539062 146.667969 L 199.539062 159.761719 C 199.539062 174.300781 207.707031 186.925781 219.703125 193.3125 C 231.699219 186.925781 239.867188 174.300781 239.867188 159.761719 L 239.867188 146.667969 C 239.867188 132.128906 231.699219 119.503906 219.703125 113.113281 Z M 219.703125 113.113281 "
      style=" stroke:none;fill-rule:nonzero;fill:rgb(98.823529%,77.647059%,61.568627%);fill-opacity:1;"/>
    <path
      d="M 500.589844 446.148438 L 407.890625 353.449219 C 410.4375 349.570312 410.007812 344.308594 406.597656 340.898438 C 403.1875 337.488281 397.921875 337.054688 394.042969 339.605469 L 369.308594 314.867188 C 387.796875 287.421875 399.4375 255.628906 402.800781 222.472656 C 407.414062 177.0625 396.433594 131.027344 371.882812 92.851562 C 368.894531 88.207031 362.707031 86.863281 358.066406 89.847656 C 353.421875 92.835938 352.078125 99.023438 355.0625 103.667969 C 400.972656 175.058594 390.664062 270.511719 330.546875 330.628906 C 259.597656 401.578125 144.152344 401.578125 73.203125 330.628906 C 2.25 259.679688 2.25 144.234375 73.203125 73.285156 C 133.382812 13.101562 225.796875 2.441406 297.929688 47.351562 C 302.617188 50.269531 308.785156 48.839844 311.703125 44.148438 C 314.621094 39.460938 313.1875 33.296875 308.5 30.378906 C 270.429688 6.675781 224.78125 -3.691406 179.945312 1.175781 C 134.429688 6.117188 91.5 26.703125 59.058594 59.144531 C -19.6875 137.890625 -19.6875 266.019531 59.058594 344.765625 C 98.433594 384.140625 150.152344 403.828125 201.871094 403.828125 C 241.273438 403.828125 280.671875 392.386719 314.613281 369.535156 L 339.226562 394.148438 C 335.527344 398.066406 335.585938 404.238281 339.421875 408.070312 C 341.375 410.023438 343.933594 411 346.492188 411 C 348.957031 411 351.421875 410.082031 353.34375 408.269531 L 445.90625 500.832031 C 453.355469 508.28125 463.152344 512 472.972656 512 C 482.882812 512 492.820312 508.207031 500.394531 500.636719 C 515.46875 485.558594 515.558594 461.117188 500.589844 446.148438 Z M 361.648438 335.488281 L 379.757812 353.597656 L 353.355469 380 L 335.246094 361.890625 Z M 486.253906 486.496094 C 478.976562 493.773438 467.21875 493.863281 460.046875 486.691406 L 367.496094 394.136719 L 393.898438 367.734375 L 486.449219 460.289062 C 493.621094 467.460938 493.535156 479.21875 486.253906 486.496094 Z M 486.253906 486.496094 "
      style=" stroke:none;fill-rule:nonzero;fill:rgb(0%,0%,0%);fill-opacity:1;"/>
    <path
      d="M 330.78125 73.523438 C 332.734375 75.476562 335.292969 76.449219 337.851562 76.449219 C 340.410156 76.449219 342.972656 75.476562 344.921875 73.523438 C 348.828125 69.617188 348.828125 63.285156 344.921875 59.382812 L 344.707031 59.164062 C 340.8125 55.246094 334.484375 55.230469 330.566406 59.121094 C 326.648438 63.015625 326.628906 69.34375 330.523438 73.261719 Z M 330.78125 73.523438 "
      style=" stroke:none;fill-rule:nonzero;fill:rgb(0%,0%,0%);fill-opacity:1;"/>
    <path
      d="M 201.871094 47.980469 C 116.96875 47.980469 47.898438 117.054688 47.898438 201.957031 C 47.898438 286.859375 116.96875 355.929688 201.871094 355.929688 C 286.773438 355.929688 355.847656 286.859375 355.847656 201.957031 C 355.847656 117.054688 286.773438 47.980469 201.871094 47.980469 Z M 201.871094 335.933594 C 127.996094 335.933594 67.894531 275.832031 67.894531 201.957031 C 67.894531 128.082031 127.996094 67.976562 201.871094 67.976562 C 275.75 67.976562 335.851562 128.082031 335.851562 201.957031 C 335.851562 275.832031 275.75 335.933594 201.871094 335.933594 Z M 201.871094 335.933594 "
      style=" stroke:none;fill-rule:nonzero;fill:rgb(0%,0%,0%);fill-opacity:1;"/>
    <path
      d="M 239.921875 188.964844 C 246.148438 180.867188 249.863281 170.742188 249.863281 159.761719 L 249.863281 146.667969 C 249.863281 120.203125 228.335938 98.675781 201.871094 98.675781 C 175.410156 98.675781 153.878906 120.203125 153.878906 146.667969 L 153.878906 159.761719 C 153.878906 170.742188 157.59375 180.867188 163.824219 188.964844 C 132.023438 194.960938 107.886719 222.929688 107.886719 256.445312 L 107.886719 261.613281 C 107.886719 267.136719 112.363281 271.613281 117.886719 271.613281 L 285.859375 271.613281 C 291.378906 271.613281 295.855469 267.136719 295.855469 261.613281 L 295.855469 256.445312 C 295.855469 222.929688 271.722656 194.960938 239.921875 188.964844 Z M 173.875 146.667969 C 173.875 131.230469 186.4375 118.671875 201.871094 118.671875 C 217.308594 118.671875 229.867188 131.230469 229.867188 146.667969 L 229.867188 159.761719 C 229.867188 175.199219 217.308594 187.757812 201.871094 187.757812 C 186.4375 187.757812 173.875 175.199219 173.875 159.761719 Z M 128.121094 251.613281 C 130.554688 227.023438 151.359375 207.753906 176.578125 207.753906 L 227.167969 207.753906 C 252.386719 207.753906 273.191406 227.023438 275.625 251.613281 Z M 128.121094 251.613281 "
      style=" stroke:none;fill-rule:nonzero;fill:rgb(0%,0%,0%);fill-opacity:1;"/>
    <path
      d="M 442.183594 44.410156 C 447.707031 44.410156 452.183594 39.9375 452.183594 34.414062 L 452.183594 21.984375 C 452.183594 16.464844 447.707031 11.988281 442.183594 11.988281 C 436.660156 11.988281 432.183594 16.464844 432.183594 21.984375 L 432.183594 34.414062 C 432.183594 39.933594 436.660156 44.410156 442.183594 44.410156 Z M 442.183594 44.410156 "
      style=" stroke:none;fill-rule:nonzero;fill:rgb(0%,0%,0%);fill-opacity:1;"/>
    <path
      d="M 442.183594 103.972656 C 447.707031 103.972656 452.183594 99.496094 452.183594 93.972656 L 452.183594 81.546875 C 452.183594 76.023438 447.707031 71.546875 442.183594 71.546875 C 436.660156 71.546875 432.183594 76.023438 432.183594 81.546875 L 432.183594 93.972656 C 432.183594 99.496094 436.660156 103.972656 442.183594 103.972656 Z M 442.183594 103.972656 "
      style=" stroke:none;fill-rule:nonzero;fill:rgb(0%,0%,0%);fill-opacity:1;"/>
    <path
      d="M 465.75 67.976562 L 478.179688 67.976562 C 483.699219 67.976562 488.175781 63.5 488.175781 57.980469 C 488.175781 52.457031 483.699219 47.980469 478.179688 47.980469 L 465.75 47.980469 C 460.226562 47.980469 455.75 52.457031 455.75 57.980469 C 455.75 63.5 460.226562 67.976562 465.75 67.976562 Z M 465.75 67.976562 "
      style=" stroke:none;fill-rule:nonzero;fill:rgb(0%,0%,0%);fill-opacity:1;"/>
    <path
      d="M 406.191406 67.976562 L 418.617188 67.976562 C 424.140625 67.976562 428.617188 63.5 428.617188 57.980469 C 428.617188 52.457031 424.140625 47.980469 418.617188 47.980469 L 406.191406 47.980469 C 400.667969 47.980469 396.191406 52.457031 396.191406 57.980469 C 396.191406 63.5 400.667969 67.976562 406.191406 67.976562 Z M 406.191406 67.976562 "
      style=" stroke:none;fill-rule:nonzero;fill:rgb(0%,0%,0%);fill-opacity:1;"/>
    <path
      d="M 61.816406 412.007812 C 56.292969 412.007812 51.816406 416.484375 51.816406 422.007812 L 51.816406 434.433594 C 51.816406 439.957031 56.292969 444.433594 61.816406 444.433594 C 67.339844 444.433594 71.816406 439.957031 71.816406 434.433594 L 71.816406 422.007812 C 71.816406 416.484375 67.339844 412.007812 61.816406 412.007812 Z M 61.816406 412.007812 "
      style=" stroke:none;fill-rule:nonzero;fill:rgb(0%,0%,0%);fill-opacity:1;"/>
    <path
      d="M 61.816406 471.566406 C 56.292969 471.566406 51.816406 476.042969 51.816406 481.566406 L 51.816406 493.992188 C 51.816406 499.515625 56.292969 503.992188 61.816406 503.992188 C 67.339844 503.992188 71.816406 499.515625 71.816406 493.992188 L 71.816406 481.566406 C 71.816406 476.042969 67.339844 471.566406 61.816406 471.566406 Z M 61.816406 471.566406 "
      style=" stroke:none;fill-rule:nonzero;fill:rgb(0%,0%,0%);fill-opacity:1;"/>
    <path
      d="M 97.808594 448 L 85.382812 448 C 79.859375 448 75.382812 452.476562 75.382812 458 C 75.382812 463.523438 79.859375 468 85.382812 468 L 97.808594 468 C 103.332031 468 107.808594 463.523438 107.808594 458 C 107.808594 452.476562 103.332031 448 97.808594 448 Z M 97.808594 448 "
      style=" stroke:none;fill-rule:nonzero;fill:rgb(0%,0%,0%);fill-opacity:1;"/>
    <path
      d="M 38.25 448 L 25.820312 448 C 20.300781 448 15.824219 452.476562 15.824219 458 C 15.824219 463.523438 20.300781 468 25.820312 468 L 38.25 468 C 43.773438 468 48.25 463.523438 48.25 458 C 48.25 452.476562 43.773438 448 38.25 448 Z M 38.25 448 "
      style=" stroke:none;fill-rule:nonzero;fill:rgb(0%,0%,0%);fill-opacity:1;"/>
  </g>
</svg>
