<svg height="512pt" viewBox="0 0 512 512" width="512pt" xmlns="http://www.w3.org/2000/svg">
  <path
    d="m512 256c0 141.386719-114.613281 256-256 256s-256-114.613281-256-256 114.613281-256 256-256 256 114.613281 256 256zm0 0"
    fill="#ffcf11"/>
  <path
    d="m277.941406 234.058594c-49.675781-49.679688-129.152344-52.953125-182.75-7.53125l-37.757812 32.003906c-2.984375 2.527344-3.464844 6.90625-1.179688 10.082031 18.074219 25.121094 15.820313 60.34375-6.773437 82.9375-7.097657 7.097657-15.449219 12.144531-24.335938 15.226563 25.1875 52.394531 67.683594 94.886718 120.074219 120.074218 3.085938-8.882812 8.132812-17.238281 15.226562-24.332031 22.59375-22.59375 57.820313-24.851562 82.941407-6.777343 3.171875 2.285156 7.554687 1.808593 10.082031-1.175782l32-37.757812c45.425781-53.59375 42.152344-133.074219-7.527344-182.75zm0 0"
    fill="#a63811"/>
  <path
    d="m56.253906 268.613281c6.808594 9.460938 10.730469 20.359375 11.769532 31.472657l29.128906-29.128907c53.605468-53.605469 136.910156-59.40625 196.945312-17.40625-4.6875-6.875-10.070312-13.410156-16.15625-19.492187-49.675781-49.679688-129.152344-52.953125-182.75-7.53125l-37.757812 32.003906c-2.984375 2.527344-3.464844 6.90625-1.179688 10.082031zm0 0"
    fill="#782b19"/>
  <path
    d="m173.980469 374.859375-36.839844-36.839844c-3.722656-3.722656-3.617187-9.792969.238281-13.382812l287.933594-268.230469 30.28125 30.28125-268.230469 287.933594c-3.589843 3.855468-9.660156 3.964844-13.382812.238281zm0 0"
    fill="#232d47"/>
  <path
    d="m485.511719 103.011719-76.523438-76.523438c-2.246093-2.246093-2.246093-5.882812 0-8.125l16.675781-16.679687c2.246094-2.246094 5.882813-2.246094 8.128907 0l76.523437 76.523437c2.246094 2.246094 2.246094 5.882813 0 8.128907l-16.679687 16.675781c-2.242188 2.246093-5.878907 2.246093-8.125 0zm0 0"
    fill="#232d47"/>
  <path
    d="m447.503906 141.019531-76.523437-76.523437c-2.246094-2.242188-2.246094-5.882813 0-8.125l16.679687-16.679688c2.242188-2.246094 5.878906-2.246094 8.125 0l76.523438 76.523438c2.246094 2.246094 2.246094 5.882812 0 8.128906l-16.675782 16.675781c-2.246093 2.246094-5.886718 2.246094-8.128906 0zm0 0"
    fill="#232d47"/>
  <path d="m406.066406 139.855469 49.527344-53.167969-30.28125-30.28125-53.167969 49.527344zm0 0" fill="#303a59"/>
  <path
    d="m419.484375 131.136719-38.621094-38.621094c-4.757812-4.757813-4.757812-12.472656 0-17.234375l63.328125-63.324219c4.757813-4.757812 12.46875-4.757812 17.230469 0l38.621094 38.621094c4.757812 4.757813 4.757812 12.472656 0 17.230469l-63.324219 63.328125c-4.761719 4.757812-12.476562 4.757812-17.234375 0zm0 0"
    fill="#a63811"/>
  <path
    d="m403.003906 97.425781 63.324219-63.328125c4.761719-4.757812 12.472656-4.757812 17.234375 0l-22.140625-22.140625c-4.757813-4.757812-12.472656-4.757812-17.230469 0l-63.328125 63.328125c-4.757812 4.757813-4.757812 12.472656 0 17.230469l22.140625 22.140625c-4.757812-4.757812-4.757812-12.472656 0-17.230469zm0 0"
    fill="#782b19"/>
  <path
    d="m123.53125 450.464844-61.992188-61.996094c-2.582031-2.578125-2.582031-6.765625 0-9.347656l12.789063-12.792969c2.582031-2.578125 6.769531-2.578125 9.351563 0l61.992187 61.996094c2.582031 2.578125 2.582031 6.765625 0 9.347656l-12.792969 12.792969c-2.582031 2.578125-6.765625 2.578125-9.347656 0zm0 0"
    fill="#232d47"/>
  <g fill="#c7d9ff">
    <path
      d="m391.671875 103.421875-296.410156 280.386719c-5.453125 5.152344-10.402344 10.882812-14.710938 17.03125l-16.902343 24.089844c-1.136719-1.289063-2.257813-2.601563-3.367188-3.910157l16.179688-23.058593c4.5-6.410157 9.667968-12.402344 15.359374-17.789063l296.410157-280.382813zm0 0"/>
    <path
      d="m398.519531 110.199219-296.550781 291.109375c-1.796875 1.769531-3.558594 3.613281-5.230469 5.492187l-24.449219 27.488281c-1.167968-1.199218-2.320312-2.417968-3.460937-3.640624l24.183594-27.179688c1.738281-1.949219 3.578125-3.878906 5.449219-5.71875l296.558593-291.121094zm0 0"/>
    <path
      d="m405.371094 116.980469-291.121094 296.558593c-1.839844 1.871094-3.769531 3.710938-5.71875 5.449219l-27.179688 24.183594c-1.222656-1.140625-2.441406-2.292969-3.640624-3.460937l27.488281-24.449219c1.878906-1.671875 3.722656-3.433594 5.492187-5.230469l291.109375-296.550781zm0 0"/>
    <path
      d="m412.210938 123.769531-280.382813 296.402344c-5.386719 5.699219-11.378906 10.867187-17.789063 15.367187l-23.058593 16.179688c-1.308594-1.109375-2.621094-2.230469-3.910157-3.367188l24.089844-16.902343c6.148438-4.308594 11.878906-9.257813 17.03125-14.710938l280.386719-296.410156zm0 0"/>
  </g>
  <path d="m361.777344 419.636719-25.1875 25.1875-30-30 25.1875-25.1875zm0 0" fill="#a63811"/>
  <path
    d="m391.652344 457.019531c1.917968 0 3.839844-.734375 5.304687-2.199219 2.929688-2.929687 2.929688-7.675781 0-10.605468l-292.9375-292.9375c-13.460937-13.457032-35.359375-13.457032-48.820312 0l-6.078125 6.082031c-2.929688 2.929687-2.929688 7.675781 0 10.605469 2.929687 2.929687 7.675781 2.929687 10.605468 0l6.078126-6.078125c7.609374-7.613281 19.996093-7.613281 27.609374 0l292.9375 292.933593c1.460938 1.464844 3.382813 2.199219 5.300782 2.199219zm0 0"
    fill="#c55733"/>
  <path
    d="m27.503906 175.226562 16.945313-16.945312c1.542969-1.546875 4.046875-1.546875 5.589843 0l298.339844 298.335938c2.882813 2.882812 2.882813 7.5625 0 10.449218l-12.09375 12.089844c-2.882812 2.882812-7.5625 2.882812-10.445312 0l-298.335938-298.335938c-1.546875-1.546874-1.546875-4.046874 0-5.59375zm0 0"
    fill="#fff"/>
</svg>
